<svg aria-hidden="true" style="position: absolute; width: 0; height: 0; overflow: hidden;" version="1.1" xmlns="http://www.w3.org/2000/svg" xmlns:xlink="http://www.w3.org/1999/xlink">
<defs>
<symbol id="icon-facebook" viewBox="0 0 32 32">
<path d="M21.329 5.313h2.921v-5.088c-0.504-0.069-2.237-0.225-4.256-0.225-4.212 0-7.097 2.649-7.097 7.519v4.481h-4.648v5.688h4.648v14.312h5.699v-14.311h4.46l0.708-5.688h-5.169v-3.919c0.001-1.644 0.444-2.769 2.735-2.769z"></path>
</symbol>
<symbol id="icon-Alternate-Map-Marker" viewBox="0 0 24 32">
<path fill="#ff5b00" style="fill: var(--color2, #ff5b00)" d="M10.611 30.9c-8.95-12.974-10.611-14.306-10.611-19.074 0-6.531 5.295-11.826 11.826-11.826s11.826 5.295 11.826 11.826c0 4.768-1.661 6.1-10.611 19.074-0.587 0.848-1.843 0.848-2.431 0zM11.826 16.754c2.721 0 4.928-2.206 4.928-4.928s-2.206-4.928-4.928-4.928c-2.721 0-4.928 2.206-4.928 4.928s2.206 4.928 4.928 4.928z"></path>
</symbol>
<symbol id="icon-Credit-Card" viewBox="0 0 40 32">
<path fill="#ff5b00" style="fill: var(--color2, #ff5b00)" d="M36.66 0h-33.319c-1.847 0-3.34 1.493-3.34 3.333v24.444c0 1.84 1.493 3.333 3.34 3.333h33.319c1.847 0 3.34-1.493 3.34-3.333v-24.444c0-1.84-1.493-3.333-3.34-3.333zM3.757 3.333h32.486c0.229 0 0.417 0.188 0.417 0.417v2.917h-33.319v-2.917c0-0.229 0.188-0.417 0.417-0.417zM36.243 27.778h-32.486c-0.229 0-0.417-0.187-0.417-0.417v-11.806h33.319v11.806c0 0.229-0.188 0.417-0.417 0.417zM13.333 20.833v2.778c0 0.458-0.375 0.833-0.833 0.833h-5c-0.458 0-0.833-0.375-0.833-0.833v-2.778c0-0.458 0.375-0.833 0.833-0.833h5c0.458 0 0.833 0.375 0.833 0.833zM26.667 20.833v2.778c0 0.458-0.375 0.833-0.833 0.833h-9.444c-0.458 0-0.833-0.375-0.833-0.833v-2.778c0-0.458 0.375-0.833 0.833-0.833h9.444c0.458 0 0.833 0.375 0.833 0.833z"></path>
</symbol>
<symbol id="icon-PizzaLogo" viewBox="0 0 32 32">
<path fill="#ff5b00" style="fill: var(--color2, #ff5b00)" d="M22.071 0.009c1.010-0.094 1.95 0.52 2.208 1.489l0.926 3.475c-11.727 0.339-19.659 8.065-20.156 19.574l-3.559-0.974c-0.983-0.269-1.593-1.215-1.476-2.217 1.305-11.163 10.687-20.287 22.057-21.347zM25.726 6.925l6.241 23.433c0.045 0.17 0.045 0.349-0.003 0.519s-0.139 0.324-0.265 0.448c-0.127 0.124-0.284 0.212-0.457 0.256s-0.354 0.043-0.525-0.004l-23.688-6.49c0.267-10.799 7.693-18.039 18.698-18.16v-0.002zM24.001 25.688c0.396 0 0.782-0.116 1.111-0.333s0.585-0.526 0.737-0.887c0.151-0.361 0.191-0.758 0.114-1.142s-0.268-0.735-0.547-1.012c-0.28-0.276-0.636-0.465-1.024-0.541s-0.79-0.037-1.156 0.112c-0.366 0.15-0.678 0.403-0.898 0.728s-0.337 0.707-0.337 1.098c0 0.524 0.211 1.027 0.586 1.397s0.884 0.579 1.414 0.579zM21.001 16.302c0.396 0 0.782-0.116 1.111-0.333s0.585-0.526 0.737-0.887c0.151-0.361 0.191-0.758 0.114-1.142s-0.268-0.735-0.547-1.012c-0.28-0.276-0.636-0.465-1.024-0.541s-0.79-0.037-1.156 0.112c-0.365 0.15-0.678 0.403-0.898 0.728s-0.337 0.707-0.337 1.098c0 0.524 0.211 1.027 0.586 1.397s0.884 0.579 1.414 0.579zM14.5 22.724c0.396 0 0.782-0.116 1.111-0.333s0.585-0.526 0.737-0.887c0.151-0.361 0.191-0.758 0.114-1.142s-0.268-0.735-0.547-1.012c-0.28-0.276-0.636-0.465-1.024-0.541s-0.79-0.037-1.156 0.112c-0.366 0.15-0.678 0.403-0.898 0.728s-0.337 0.707-0.337 1.098c0 0.524 0.211 1.027 0.586 1.397s0.884 0.579 1.414 0.579z"></path>
</symbol>
<symbol id="icon-User" viewBox="0 0 28 32">
<path fill="#ff5b00" style="fill: var(--color2, #ff5b00)" d="M13.913 15.901c4.391 0 7.95-3.559 7.95-7.95s-3.559-7.95-7.95-7.95-7.95 3.559-7.95 7.95c0 4.391 3.559 7.95 7.95 7.95zM19.478 17.888h-1.037c-1.379 0.634-2.913 0.994-4.528 0.994s-3.143-0.36-4.528-0.994h-1.037c-4.609 0-8.348 3.739-8.348 8.348v2.584c0 1.646 1.335 2.981 2.981 2.981h21.863c1.646 0 2.981-1.335 2.981-2.981v-2.584c0-4.609-3.739-8.348-8.348-8.348z"></path>
</symbol>
<symbol id="icon-darkmode" viewBox="0 0 36 32">
<path fill="#ff5b00" style="fill: var(--color2, #ff5b00)" d="M21.371 21.988c0.355-0.598 0.574-1.291 0.574-2.039 0-2.201-1.789-3.99-3.99-3.99-1.072 0-2.045 0.43-2.762 1.116-1.016-1.845-2.961-3.111-5.218-3.111-3.304 0-5.985 2.681-5.985 5.985 0 0.125 0.031 0.237 0.037 0.355-2.338 0.817-4.027 3.017-4.027 5.629 0 3.304 2.681 5.985 5.985 5.985h14.962c2.756 0 4.987-2.232 4.987-4.987 0-2.612-2.014-4.725-4.563-4.944zM35.242 18.603c-5.804 1.103-11.128-3.348-11.128-9.208 0-3.379 1.808-6.484 4.744-8.154 0.455-0.256 0.337-0.941-0.175-1.041-0.729-0.131-1.459-0.2-2.188-0.2-6.602 0-11.963 5.355-11.963 11.97 0 0.53 0.044 1.047 0.112 1.559 0.368 0.268 0.723 0.555 1.041 0.885 0.711-0.293 1.478-0.449 2.269-0.449 3.298 0 5.985 2.687 5.985 5.985 0 0.224-0.012 0.449-0.037 0.667 1.471 0.673 2.643 1.839 3.335 3.279 3.391-0.212 6.465-1.827 8.547-4.389 0.33-0.405-0.031-1.004-0.542-0.904z"></path>
</symbol>
<symbol id="icon-insta" viewBox="0 0 32 32">
<path  d="M31.969 9.408c-0.075-1.7-0.35-2.869-0.744-3.882-0.406-1.075-1.032-2.038-1.851-2.838-0.8-0.813-1.769-1.444-2.832-1.844-1.019-0.394-2.182-0.669-3.882-0.744-1.713-0.081-2.257-0.1-6.601-0.1s-4.888 0.019-6.595 0.094c-1.7 0.075-2.869 0.35-3.882 0.744-1.075 0.406-2.038 1.031-2.838 1.85-0.813 0.8-1.444 1.769-1.844 2.832-0.394 1.019-0.669 2.182-0.744 3.882-0.081 1.713-0.1 2.257-0.1 6.601s0.019 4.888 0.094 6.595c0.075 1.7 0.35 2.869 0.744 3.882 0.406 1.075 1.038 2.038 1.85 2.838 0.8 0.813 1.769 1.444 2.832 1.844 1.019 0.394 2.182 0.669 3.882 0.744 1.706 0.075 2.25 0.094 6.595 0.094s4.888-0.019 6.595-0.094c1.7-0.075 2.869-0.35 3.882-0.744 2.151-0.832 3.851-2.532 4.682-4.682 0.394-1.019 0.669-2.182 0.744-3.882 0.075-1.707 0.094-2.251 0.094-6.595s-0.006-4.888-0.081-6.595zM29.087 22.473c-0.069 1.563-0.331 2.407-0.55 2.969-0.538 1.394-1.644 2.5-3.038 3.038-0.563 0.219-1.413 0.481-2.969 0.55-1.688 0.075-2.194 0.094-6.464 0.094s-4.782-0.019-6.464-0.094c-1.563-0.069-2.407-0.331-2.969-0.55-0.694-0.256-1.325-0.663-1.838-1.194-0.531-0.519-0.938-1.144-1.194-1.838-0.219-0.563-0.481-1.413-0.55-2.969-0.075-1.688-0.094-2.194-0.094-6.464s0.019-4.782 0.094-6.464c0.069-1.563 0.331-2.407 0.55-2.969 0.256-0.694 0.663-1.325 1.2-1.838 0.519-0.531 1.144-0.938 1.838-1.194 0.563-0.219 1.413-0.481 2.969-0.55 1.688-0.075 2.194-0.094 6.464-0.094 4.276 0 4.782 0.019 6.464 0.094 1.563 0.069 2.407 0.331 2.969 0.55 0.694 0.256 1.325 0.662 1.838 1.194 0.531 0.519 0.938 1.144 1.194 1.838 0.219 0.563 0.481 1.413 0.55 2.969 0.075 1.688 0.094 2.194 0.094 6.464s-0.019 4.77-0.094 6.458z"></path>
<path d="M16.059 7.783c-4.538 0-8.22 3.682-8.22 8.22s3.682 8.22 8.22 8.22c4.539 0 8.22-3.682 8.22-8.22s-3.682-8.22-8.22-8.22zM16.059 21.335c-2.944 0-5.332-2.388-5.332-5.332s2.388-5.332 5.332-5.332c2.944 0 5.332 2.388 5.332 5.332s-2.388 5.332-5.332 5.332v0z"></path>
<path  d="M26.524 7.458c0 1.060-0.859 1.919-1.919 1.919s-1.919-0.859-1.919-1.919c0-1.060 0.859-1.919 1.919-1.919s1.919 0.859 1.919 1.919v0z"></path>
</symbol>
<symbol id="icon-twitter" viewBox="0 0 32 32">
<path  d="M32 6.078c-1.19 0.522-2.458 0.868-3.78 1.036 1.36-0.812 2.398-2.088 2.886-3.626-1.268 0.756-2.668 1.29-4.16 1.588-1.204-1.282-2.92-2.076-4.792-2.076-3.632 0-6.556 2.948-6.556 6.562 0 0.52 0.044 1.020 0.152 1.496-5.454-0.266-10.28-2.88-13.522-6.862-0.566 0.982-0.898 2.106-0.898 3.316 0 2.272 1.17 4.286 2.914 5.452-1.054-0.020-2.088-0.326-2.964-0.808 0 0.020 0 0.046 0 0.072 0 3.188 2.274 5.836 5.256 6.446-0.534 0.146-1.116 0.216-1.72 0.216-0.42 0-0.844-0.024-1.242-0.112 0.85 2.598 3.262 4.508 6.13 4.57-2.232 1.746-5.066 2.798-8.134 2.798-0.538 0-1.054-0.024-1.57-0.090 2.906 1.874 6.35 2.944 10.064 2.944 12.072 0 18.672-10 18.672-18.668 0-0.29-0.010-0.57-0.024-0.848 1.302-0.924 2.396-2.078 3.288-3.406z"></path>
</symbol>
</defs>
</svg>
