<svg aria-hidden="true" style="position: absolute; width: 0; height: 0; overflow: hidden;" version="1.1" xmlns="http://www.w3.org/2000/svg" xmlns:xlink="http://www.w3.org/1999/xlink">
<defs>
<symbol id="icon-Alternate-Map-Marker" viewBox="0 0 24 32">
<path fill="#ff5b00" style="fill: var(--color1, #ff5b00)" d="M10.611 30.9c-8.95-12.974-10.611-14.306-10.611-19.074 0-6.531 5.295-11.826 11.826-11.826s11.826 5.295 11.826 11.826c0 4.768-1.661 6.1-10.611 19.074-0.587 0.848-1.843 0.848-2.431 0zM11.826 16.754c2.721 0 4.928-2.206 4.928-4.928s-2.206-4.928-4.928-4.928c-2.721 0-4.928 2.206-4.928 4.928s2.206 4.928 4.928 4.928z"></path>
</symbol>
<symbol id="icon-Credit-Card" viewBox="0 0 40 32">
<path fill="#ff5b00" style="fill: var(--color1, #ff5b00)" d="M36.66 0h-33.319c-1.847 0-3.34 1.493-3.34 3.333v24.444c0 1.84 1.493 3.333 3.34 3.333h33.319c1.847 0 3.34-1.493 3.34-3.333v-24.444c0-1.84-1.493-3.333-3.34-3.333zM3.757 3.333h32.486c0.229 0 0.417 0.188 0.417 0.417v2.917h-33.319v-2.917c0-0.229 0.188-0.417 0.417-0.417zM36.243 27.778h-32.486c-0.229 0-0.417-0.187-0.417-0.417v-11.806h33.319v11.806c0 0.229-0.188 0.417-0.417 0.417zM13.333 20.833v2.778c0 0.458-0.375 0.833-0.833 0.833h-5c-0.458 0-0.833-0.375-0.833-0.833v-2.778c0-0.458 0.375-0.833 0.833-0.833h5c0.458 0 0.833 0.375 0.833 0.833zM26.667 20.833v2.778c0 0.458-0.375 0.833-0.833 0.833h-9.444c-0.458 0-0.833-0.375-0.833-0.833v-2.778c0-0.458 0.375-0.833 0.833-0.833h9.444c0.458 0 0.833 0.375 0.833 0.833z"></path>
</symbol>
<symbol id="icon-PizzaLogo" viewBox="0 0 32 32">
<path fill="#ff5b00" style="fill: var(--color1, #ff5b00)" d="M22.071 0.009c1.010-0.094 1.95 0.52 2.208 1.489l0.926 3.475c-11.727 0.339-19.659 8.065-20.156 19.574l-3.559-0.974c-0.983-0.269-1.593-1.215-1.476-2.217 1.305-11.163 10.687-20.287 22.057-21.347zM25.726 6.925l6.241 23.433c0.045 0.17 0.045 0.349-0.003 0.519s-0.139 0.324-0.265 0.448c-0.127 0.124-0.284 0.212-0.457 0.256s-0.354 0.043-0.525-0.004l-23.688-6.49c0.267-10.799 7.693-18.039 18.698-18.16v-0.002zM24.001 25.688c0.396 0 0.782-0.116 1.111-0.333s0.585-0.526 0.737-0.887c0.151-0.361 0.191-0.758 0.114-1.142s-0.268-0.735-0.547-1.012c-0.28-0.276-0.636-0.465-1.024-0.541s-0.79-0.037-1.156 0.112c-0.366 0.15-0.678 0.403-0.898 0.728s-0.337 0.707-0.337 1.098c0 0.524 0.211 1.027 0.586 1.397s0.884 0.579 1.414 0.579zM21.001 16.302c0.396 0 0.782-0.116 1.111-0.333s0.585-0.526 0.737-0.887c0.151-0.361 0.191-0.758 0.114-1.142s-0.268-0.735-0.547-1.012c-0.28-0.276-0.636-0.465-1.024-0.541s-0.79-0.037-1.156 0.112c-0.365 0.15-0.678 0.403-0.898 0.728s-0.337 0.707-0.337 1.098c0 0.524 0.211 1.027 0.586 1.397s0.884 0.579 1.414 0.579zM14.5 22.724c0.396 0 0.782-0.116 1.111-0.333s0.585-0.526 0.737-0.887c0.151-0.361 0.191-0.758 0.114-1.142s-0.268-0.735-0.547-1.012c-0.28-0.276-0.636-0.465-1.024-0.541s-0.79-0.037-1.156 0.112c-0.366 0.15-0.678 0.403-0.898 0.728s-0.337 0.707-0.337 1.098c0 0.524 0.211 1.027 0.586 1.397s0.884 0.579 1.414 0.579z"></path>
</symbol>
<symbol id="icon-User" viewBox="0 0 28 32">
<path fill="#ff5b00" style="fill: var(--color1, #ff5b00)" d="M13.913 15.901c4.391 0 7.95-3.559 7.95-7.95s-3.559-7.95-7.95-7.95-7.95 3.559-7.95 7.95c0 4.391 3.559 7.95 7.95 7.95zM19.478 17.888h-1.037c-1.379 0.634-2.913 0.994-4.528 0.994s-3.143-0.36-4.528-0.994h-1.037c-4.609 0-8.348 3.739-8.348 8.348v2.584c0 1.646 1.335 2.981 2.981 2.981h21.863c1.646 0 2.981-1.335 2.981-2.981v-2.584c0-4.609-3.739-8.348-8.348-8.348z"></path>
</symbol>
<symbol id="icon-darkmode" viewBox="0 0 36 32">
<path fill="#ff5b00" style="fill: var(--color1, #ff5b00)" d="M21.371 21.988c0.355-0.598 0.574-1.291 0.574-2.039 0-2.201-1.789-3.99-3.99-3.99-1.072 0-2.045 0.43-2.762 1.116-1.016-1.845-2.961-3.111-5.218-3.111-3.304 0-5.985 2.681-5.985 5.985 0 0.125 0.031 0.237 0.037 0.355-2.338 0.817-4.027 3.017-4.027 5.629 0 3.304 2.681 5.985 5.985 5.985h14.962c2.756 0 4.987-2.232 4.987-4.987 0-2.612-2.014-4.725-4.563-4.944zM35.242 18.603c-5.804 1.103-11.128-3.348-11.128-9.208 0-3.379 1.808-6.484 4.744-8.154 0.455-0.256 0.337-0.941-0.175-1.041-0.729-0.131-1.459-0.2-2.188-0.2-6.602 0-11.963 5.355-11.963 11.97 0 0.53 0.044 1.047 0.112 1.559 0.368 0.268 0.723 0.555 1.041 0.885 0.711-0.293 1.478-0.449 2.269-0.449 3.298 0 5.985 2.687 5.985 5.985 0 0.224-0.012 0.449-0.037 0.667 1.471 0.673 2.643 1.839 3.335 3.279 3.391-0.212 6.465-1.827 8.547-4.389 0.33-0.405-0.031-1.004-0.542-0.904z"></path>
</symbol>
</defs>
</svg>
